<?xml version="1.0" encoding="utf-8"?>
<!-- Generator: Adobe Illustrator 17.0.0, SVG Export Plug-In . SVG Version: 6.00 Build 0)  -->
<!DOCTYPE svg PUBLIC "-//W3C//DTD SVG 1.1//EN" "http://www.w3.org/Graphics/SVG/1.1/DTD/svg11.dtd">
<svg version="1.1" id="Layer_1" xmlns="http://www.w3.org/2000/svg" xmlns:xlink="http://www.w3.org/1999/xlink" x="0px" y="0px"
	 width="1000px" height="1000px" viewBox="0 0 1000 1000" enable-background="new 0 0 1000 1000" xml:space="preserve">
<g>
	<ellipse fill="#491447" cx="500.05" cy="501.74" rx="485.888" ry="486.341"/>
	<path fill="#FFFFFF" d="M656.487,515.166l-159.609-175.77v-0.506l-159.609,175.77L101.246,774.58
		c72.726,106.333,187.064,181.698,319.435,202.399l76.197,0.081v0.506l76.197-0.081c132.371-20.701,246.709-96.066,319.435-202.399
		L656.487,515.166z"/>
	<path fill="#491549" d="M552.695,791.612c-3.226-0.763-6.572-1.205-10.024-1.205h-6.464c0.16-2.157,0.248-4.18,0.248-6.128V708
		c0-24.825-9.906-42.843-23.554-42.843h-33.707c-13.647,0-23.554,18.017-23.554,42.843v76.279c0,1.975,0.088,3.996,0.247,6.128
		h-6.463c-2.976,0-5.879,0.313-8.692,0.885c-20.467,4.157-35.905,22.689-35.905,44.938v99.283c0,7.154,1.641,13.898,4.486,19.931
		c4.017,8.517,10.516,15.564,18.531,20.147c6.39,3.654,13.741,5.745,21.579,5.745h93.247c7.72,0,14.96-2.046,21.286-5.597
		c9.133-5.127,16.342-13.422,20.192-23.473c1.989-5.194,3.119-10.834,3.119-16.754V836.23
		C587.268,814.469,572.491,796.29,552.695,791.612z M470.507,708c0-17.791,6.525-27.568,8.688-27.568h33.707
		c2.163,0,8.688,9.778,8.688,27.568v74.77h-51.084V708z M512.902,819.485h-33.707c-6.662,0-12.356-8.849-14.809-21.441h63.325
		C525.258,810.636,519.564,819.485,512.902,819.485z"/>
	<g>
		<g>
			<path fill="#491447" d="M500.049,986.696c-267.919,0-485.887-217.86-485.887-485.648S232.131,15.399,500.049,15.399
				s485.889,217.86,485.889,485.648S767.968,986.696,500.049,986.696z M500.049,27.619c-261.361,0-473.995,212.38-473.995,473.429
				s212.634,473.429,473.995,473.429c261.363,0,473.996-212.38,473.996-473.429S761.412,27.619,500.049,27.619z"/>
			<path fill="#491447" d="M500.049,990.318c-269.915,0-489.511-219.489-489.511-489.27c0-269.788,219.595-489.274,489.511-489.274
				S989.56,231.26,989.56,501.048C989.56,770.829,769.965,990.318,500.049,990.318z M500.049,19.021
				c-265.92,0-482.264,216.237-482.264,482.027s216.343,482.023,482.264,482.023s482.264-216.234,482.264-482.023
				S765.97,19.021,500.049,19.021z M500.049,978.103c-263.359,0-477.618-214.005-477.618-477.055
				c0-263.047,214.259-477.052,477.618-477.052s477.618,214.005,477.618,477.052C977.667,764.099,763.408,978.103,500.049,978.103z
				 M500.049,31.243c-259.364,0-470.371,210.753-470.371,469.805s211.008,469.809,470.371,469.809S970.421,760.1,970.421,501.048
				S759.413,31.243,500.049,31.243z"/>
		</g>
	</g>
	<path fill="#FDFDFE" d="M630.953,199.756L607.28,180.74L558.4,141.477c-6.54-5.254-15.53-9.141-25.643-11.575
		c-0.064-0.16-0.151-0.317-0.218-0.476c-2.966-0.636-6.012-1.202-9.093-1.735v-12.523v-6.236V90.624
		c0,0-14.885-27.891-26.519-27.891c-0.061,0-0.123,0.012-0.185,0.013c-0.061-0.002-0.124-0.013-0.185-0.013
		c-11.633,0-26.519,27.891-26.519,27.891v18.308v6.236v12.523c-3.081,0.533-6.127,1.099-9.093,1.735
		c-0.067,0.16-0.154,0.316-0.218,0.476c-10.113,2.434-19.103,6.322-25.643,11.575l-48.879,39.263l-23.674,19.016
		c-5.228,4.199-8.271,8.806-9.413,13.472c8.849-0.709,17.543-2.416,25.408-5.262l8.898-3.218v1.804c0,3.301,2.604,5.977,5.817,5.977
		c3.212,0,5.817-2.676,5.817-5.977v-6.012l20.055-7.254v3.304c0,3.301,2.604,5.977,5.817,5.977c3.212,0,5.817-2.676,5.817-5.977
		v-7.512l14.957-5.41v3.686c0,3.301,2.604,5.977,5.817,5.977c3.212,0,5.817-2.676,5.817-5.977v-7.894l12.701-4.594v1.919
		l0.143-0.115l15.542,88.715l0.403,2.298l-3.361,0.01c-6.408,0.019-11.692,9.876-12.727,22.82l20.706-0.063
		c1.484,4.827,3.38,9.382,5.705,13.557c0.038-0.068,0.07-0.141,0.108-0.21c0.037,0.069,0.07,0.141,0.108,0.21
		c0.027-0.048,0.05-0.1,0.077-0.148c0.027,0.049,0.05,0.1,0.077,0.148c0.038-0.068,0.07-0.141,0.108-0.21
		c0.037,0.069,0.07,0.141,0.108,0.21c2.325-4.175,4.221-8.731,5.705-13.557l20.706,0.063c-1.035-12.943-6.319-22.8-12.727-22.82
		l-3.361-0.01l0.403-2.298l15.542-88.715l0.143,0.115v-1.919l12.701,4.594v7.894c0,3.301,2.604,5.977,5.817,5.977
		c3.213,0,5.817-2.676,5.817-5.977v-3.686l14.957,5.41v7.512c0,3.301,2.604,5.977,5.817,5.977c3.213,0,5.817-2.676,5.817-5.977
		v-3.304l20.055,7.254v6.012c0,3.301,2.604,5.977,5.817,5.977s5.817-2.676,5.817-5.977v-1.804l8.898,3.218
		c7.866,2.845,16.56,4.552,25.408,5.262C639.225,208.562,636.181,203.955,630.953,199.756z"/>
</g>
</svg>
