<?xml version="1.0" encoding="utf-8"?>
<!-- Generator: Adobe Illustrator 17.0.0, SVG Export Plug-In . SVG Version: 6.00 Build 0)  -->
<!DOCTYPE svg PUBLIC "-//W3C//DTD SVG 1.1//EN" "http://www.w3.org/Graphics/SVG/1.1/DTD/svg11.dtd">
<svg version="1.1" xmlns="http://www.w3.org/2000/svg" xmlns:xlink="http://www.w3.org/1999/xlink" x="0px" y="0px" width="700px"
	 height="150px" viewBox="0 0 700 150" enable-background="new 0 0 700 150" xml:space="preserve">
<g id="Layer_2" display="none">
	<rect x="-130" y="-44.5" display="inline" fill="#491447" width="960" height="240"/>
</g>
<g id="Layer_1">
	<g>
		<path fill="#0B0E15" d="M165.699,110.098V47.453h-23.615v-8.645h57.229v8.645h-23.615v62.645H165.699z"/>
		<path fill="#0B0E15" d="M201.76,110.098V57.164h6.489l2.872,9.818c1.843-3.202,4.343-5.779,7.499-7.737
			c3.155-1.956,6.931-2.935,11.329-2.935v9.285c-0.497,0-1.01,0-1.543,0c-0.532,0-1.047,0.037-1.542,0.107
			c-6.028,0.499-10.23,2.598-12.605,6.296c-2.377,3.701-3.564,8.823-3.564,15.368v22.731H201.76z"/>
		<path fill="#0B0E15" d="M251.118,111.379c-3.334,0-6.382-0.605-9.148-1.814c-2.766-1.209-4.965-2.952-6.595-5.23
			c-1.632-2.276-2.447-5.016-2.447-8.217c0-4.197,1.471-7.506,4.414-9.926c2.942-2.418,7.09-4.285,12.445-5.603
			c5.354-1.316,11.611-2.365,18.775-3.148c0.141-4.482-0.745-7.932-2.659-10.351c-1.914-2.418-4.999-3.629-9.254-3.629
			c-3.191,0-5.797,0.73-7.818,2.188c-2.021,1.459-3.316,3.468-3.883,6.029l-8.617-2.561c1.418-4.056,3.953-7.203,7.606-9.445
			c3.651-2.241,7.853-3.361,12.605-3.361c7.303,0,12.64,1.726,16.009,5.176c3.367,3.452,5.052,8.876,5.052,16.275v12.379
			c0,4.413,0.176,8.218,0.532,11.42c0.354,3.201,0.78,6.048,1.277,8.537h-8.191l-2.128-7.257c-1.56,2.633-3.795,4.714-6.701,6.243
			C259.484,110.613,255.726,111.379,251.118,111.379z M253.032,104.228c2.766,0,5.388-0.497,7.872-1.494
			c2.482-0.995,4.503-2.685,6.063-5.069c1.559-2.383,2.34-5.638,2.34-9.765v-3.309c-5.39,0.571-10.07,1.264-14.041,2.081
			c-3.972,0.818-7.039,1.957-9.201,3.415c-2.164,1.459-3.244,3.398-3.244,5.816c0,2.492,0.904,4.5,2.712,6.03
			C247.341,103.464,249.841,104.228,253.032,104.228z"/>
		<path fill="#0B0E15" d="M303.664,110.098l-18.828-52.933h9.68l13.828,41.194l13.722-41.194h9.68l-18.828,52.933H303.664z"/>
		<path fill="#0B0E15" d="M361.637,111.379c-5.531,0-10.212-1.227-14.041-3.682c-3.829-2.455-6.754-5.763-8.775-9.926
			c-2.021-4.162-3.031-8.839-3.031-14.034c0-5.62,1.133-10.475,3.404-14.567c2.269-4.09,5.335-7.257,9.202-9.498
			c3.864-2.241,8.207-3.361,13.031-3.361c4.184,0,7.872,0.837,11.062,2.508c3.192,1.672,5.832,3.913,7.925,6.723
			c2.091,2.812,3.616,5.995,4.574,9.552c0.957,3.558,1.293,7.222,1.011,10.992h-40.635c0.141,4.413,1.117,7.897,2.925,10.458
			c1.809,2.562,3.952,4.359,6.436,5.39c2.481,1.032,4.787,1.548,6.914,1.548c2.978,0,5.478-0.481,7.499-1.441
			s3.633-2.223,4.84-3.788l8.617,2.561c-1.915,3.06-4.645,5.586-8.191,7.578C370.856,110.381,366.6,111.379,361.637,111.379z
			 M345.469,78.935h31.061c0-2.489-0.622-4.872-1.862-7.15c-1.241-2.276-2.978-4.144-5.212-5.603
			c-2.234-1.457-4.912-2.188-8.031-2.188c-2.624,0-5.106,0.499-7.447,1.494c-2.34,0.997-4.273,2.598-5.797,4.803
			C346.656,72.497,345.751,75.379,345.469,78.935z"/>
		<path fill="#0B0E15" d="M408.972,110.098c-3.335,0-5.904-0.337-7.713-1.014c-1.808-0.675-3.05-1.974-3.723-3.895
			c-0.675-1.921-1.011-4.696-1.011-8.324V38.915h8.936v56.455c0,2.705,0.282,4.519,0.85,5.443c0.567,0.926,2.091,1.387,4.575,1.387
			h2.021v7.897H408.972z"/>
		<path fill="#0B0E15" d="M422.588,110.098V38.809h16.594l18.935,58.269l18.935-58.269h16.594v71.289h-10V49.267l-20.53,60.831
			h-9.893l-20.636-60.831v60.831H422.588z"/>
		<path fill="#0B0E15" d="M523.96,111.379c-3.334,0-6.382-0.605-9.148-1.814c-2.766-1.209-4.965-2.952-6.596-5.23
			c-1.632-2.276-2.447-5.016-2.447-8.217c0-4.197,1.471-7.506,4.415-9.926c2.941-2.418,7.09-4.285,12.445-5.603
			c5.353-1.316,11.611-2.365,18.775-3.148c0.142-4.482-0.744-7.932-2.659-10.351c-1.915-2.418-5-3.629-9.255-3.629
			c-3.192,0-5.798,0.73-7.819,2.188c-2.021,1.459-3.316,3.468-3.882,6.029l-8.616-2.561c1.418-4.056,3.952-7.203,7.606-9.445
			c3.652-2.241,7.854-3.361,12.606-3.361c7.303,0,12.64,1.726,16.009,5.176c3.367,3.452,5.053,8.876,5.053,16.275v12.379
			c0,4.413,0.176,8.218,0.532,11.42c0.354,3.201,0.78,6.048,1.276,8.537h-8.19l-2.128-7.257c-1.561,2.633-3.794,4.714-6.701,6.243
			C532.327,110.613,528.569,111.379,523.96,111.379z M525.875,104.228c2.766,0,5.389-0.497,7.872-1.494
			c2.482-0.995,4.503-2.685,6.064-5.069c1.559-2.383,2.34-5.638,2.34-9.765v-3.309c-5.39,0.571-10.071,1.264-14.042,2.081
			c-3.973,0.818-7.039,1.957-9.201,3.415c-2.164,1.459-3.245,3.398-3.245,5.816c0,2.492,0.905,4.5,2.713,6.03
			C520.184,103.464,522.684,104.228,525.875,104.228z"/>
		<path fill="#0B0E15" d="M565.126,110.098V57.164h6.596l2.34,8.004c1.489-2.49,3.579-4.589,6.275-6.297
			c2.694-1.708,6.276-2.561,10.744-2.561c6.382,0,10.885,1.867,13.51,5.603c2.623,3.735,3.936,8.628,3.936,14.674v33.51h-8.935
			V79.256c0-2.703-0.249-5.211-0.745-7.524c-0.497-2.311-1.579-4.179-3.244-5.603c-1.667-1.423-4.202-2.135-7.606-2.135
			c-4.327,0-7.731,1.477-10.212,4.429c-2.483,2.953-3.723,7.276-3.723,12.966v28.708H565.126z"/>
		<path fill="#0B0E15" d="M641.289,111.379c-3.973,0-7.696-1.086-11.169-3.256c-3.476-2.169-6.26-5.299-8.351-9.391
			c-2.093-4.09-3.138-9.053-3.138-14.888c0-5.833,1.046-10.795,3.138-14.887c2.091-4.09,4.875-7.22,8.351-9.391
			c3.473-2.169,7.197-3.255,11.169-3.255c4.183,0,7.694,0.837,10.531,2.508c2.835,1.672,5.035,3.895,6.596,6.67v-26.68h8.935v51.332
			c0,1.78,0.07,4.394,0.212,7.844c0.142,3.451,0.673,7.488,1.596,12.113h-8.404l-2.34-8.004c-1.561,2.846-3.76,5.106-6.596,6.777
			C648.983,110.542,645.472,111.379,641.289,111.379z M643.629,103.695c4.538,0,8.173-1.743,10.903-5.23
			c2.729-3.485,4.095-8.359,4.095-14.621c0-6.331-1.366-11.222-4.095-14.674c-2.731-3.45-6.366-5.176-10.903-5.176
			c-4.539,0-8.174,1.726-10.903,5.176c-2.731,3.452-4.096,8.342-4.096,14.674c0,6.262,1.364,11.136,4.096,14.621
			C635.455,101.952,639.09,103.695,643.629,103.695z"/>
		<path fill="#0B0E15" d="M686.71,110.098V64.315h-7.34v-7.15h16.275v52.933H686.71z M691.177,47.133
			c-1.773,0-3.316-0.657-4.627-1.974c-1.313-1.316-1.968-2.898-1.968-4.749c0-1.849,0.655-3.415,1.968-4.696
			c1.311-1.281,2.854-1.921,4.627-1.921c1.843,0,3.421,0.64,4.733,1.921c1.311,1.281,1.968,2.846,1.968,4.696
			c0,1.851-0.657,3.433-1.968,4.749C694.598,46.476,693.021,47.133,691.177,47.133z"/>
	</g>
	<g>
		<ellipse fill="#491447" cx="70.049" cy="75.142" rx="67.049" ry="67.112"/>
		<path fill="#FFFFFF" d="M91.637,76.995L69.612,52.739v-0.07L47.587,76.925l-32.57,35.867c10.036,14.673,25.814,25.073,44.08,27.93
			l10.515,0.011v0.07l10.515-0.011c18.266-2.857,34.044-13.257,44.08-27.93L91.637,76.995z"/>
		<path fill="#491549" d="M77.314,115.142c-0.445-0.105-0.907-0.166-1.383-0.166h-0.892c0.022-0.298,0.034-0.577,0.034-0.846
			v-10.526c0-3.426-1.367-5.912-3.25-5.912h-4.651c-1.883,0-3.25,2.486-3.25,5.912v10.526c0,0.272,0.012,0.551,0.034,0.846h-0.892
			c-0.411,0-0.811,0.043-1.199,0.122c-2.824,0.574-4.955,3.131-4.955,6.201V135c0,0.987,0.226,1.918,0.619,2.75
			c0.554,1.175,1.451,2.148,2.557,2.78c0.882,0.504,1.896,0.793,2.978,0.793h12.867c1.065,0,2.064-0.282,2.937-0.772
			c1.26-0.708,2.255-1.852,2.786-3.239c0.274-0.717,0.43-1.495,0.43-2.312v-13.7C82.085,118.297,80.046,115.788,77.314,115.142z
			 M65.973,103.604c0-2.455,0.9-3.804,1.199-3.804h4.651c0.298,0,1.199,1.349,1.199,3.804v10.318h-7.049V103.604z M71.823,118.989
			h-4.651c-0.919,0-1.705-1.221-2.044-2.959h8.738C73.528,117.768,72.742,118.989,71.823,118.989z"/>
		<g>
			<g>
				<path fill="#491447" d="M70.049,142.063C33.078,142.063,3,111.999,3,75.046S33.078,8.03,70.049,8.03
					s67.049,30.063,67.049,67.016S107.02,142.063,70.049,142.063z M70.049,9.716c-36.066,0-65.408,29.307-65.408,65.33
					s29.342,65.33,65.408,65.33c36.066,0,65.408-29.307,65.408-65.33S106.116,9.716,70.049,9.716z"/>
				<path fill="#491447" d="M70.049,142.563c-37.247,0-67.549-30.288-67.549-67.516C2.5,37.817,32.803,7.53,70.049,7.53
					s67.549,30.288,67.549,67.517C137.599,112.274,107.296,142.563,70.049,142.563z M70.049,8.53C33.354,8.53,3.5,38.369,3.5,75.046
					s29.854,66.516,66.549,66.516s66.549-29.839,66.549-66.516S106.745,8.53,70.049,8.53z M70.049,140.877
					c-36.342,0-65.908-29.531-65.908-65.831c0-36.299,29.566-65.83,65.908-65.83s65.908,29.531,65.908,65.83
					C135.958,111.346,106.391,140.877,70.049,140.877z M70.049,10.216c-35.791,0-64.908,29.083-64.908,64.83
					s29.118,64.831,64.908,64.831s64.908-29.083,64.908-64.831S105.84,10.216,70.049,10.216z"/>
			</g>
		</g>
		<path fill="#FDFDFE" d="M88.113,33.47l-3.267-2.624l-6.745-5.418c-0.903-0.725-2.143-1.261-3.539-1.597
			c-0.009-0.022-0.021-0.044-0.03-0.066c-0.409-0.088-0.83-0.166-1.255-0.239v-1.728v-0.86V18.41c0,0-2.054-3.849-3.659-3.849
			c-0.008,0-0.017,0.002-0.025,0.002c-0.008,0-0.017-0.002-0.025-0.002c-1.605,0-3.659,3.849-3.659,3.849v2.526v0.86v1.728
			c-0.425,0.074-0.846,0.152-1.255,0.239c-0.009,0.022-0.021,0.044-0.03,0.066c-1.396,0.336-2.636,0.872-3.539,1.597l-6.745,5.418
			l-3.267,2.624c-0.721,0.579-1.141,1.215-1.299,1.859c1.221-0.098,2.421-0.333,3.506-0.726l1.228-0.444v0.249
			c0,0.455,0.359,0.825,0.803,0.825s0.803-0.369,0.803-0.825v-0.83l2.767-1.001v0.456c0,0.455,0.359,0.825,0.803,0.825
			c0.443,0,0.803-0.369,0.803-0.825v-1.037l2.064-0.747v0.509c0,0.455,0.359,0.825,0.803,0.825c0.443,0,0.803-0.369,0.803-0.825
			v-1.089l1.753-0.634V30.3l0.02-0.016l2.145,12.242l0.056,0.317l-0.464,0.001c-0.884,0.003-1.613,1.363-1.756,3.149l2.857-0.009
			c0.205,0.666,0.466,1.295,0.787,1.871c0.005-0.009,0.01-0.019,0.015-0.029c0.005,0.009,0.01,0.02,0.015,0.029
			c0.004-0.007,0.007-0.014,0.011-0.02c0.004,0.007,0.007,0.014,0.011,0.02c0.005-0.009,0.01-0.019,0.015-0.029
			c0.005,0.009,0.01,0.02,0.015,0.029c0.321-0.576,0.582-1.205,0.787-1.871l2.857,0.009c-0.143-1.786-0.872-3.146-1.756-3.149
			l-0.464-0.001l0.056-0.317l2.145-12.242l0.02,0.016v-0.265l1.753,0.634v1.089c0,0.455,0.359,0.825,0.803,0.825
			c0.443,0,0.803-0.369,0.803-0.825V31.25l2.064,0.747v1.037c0,0.455,0.359,0.825,0.803,0.825c0.443,0,0.803-0.369,0.803-0.825
			v-0.456l2.767,1.001v0.83c0,0.455,0.359,0.825,0.803,0.825s0.803-0.369,0.803-0.825v-0.249l1.228,0.444
			c1.085,0.393,2.285,0.628,3.506,0.726C89.255,34.685,88.835,34.049,88.113,33.47z"/>
	</g>
	<line fill="none" x1="91.526" y1="91.414" x2="93.526" y2="91.283"/>
	<line fill="none" x1="-130" y1="75.142" x2="-127.667" y2="75.142"/>
</g>
</svg>
