<?xml version="1.0" encoding="utf-8"?>
<!-- Generator: Adobe Illustrator 17.0.0, SVG Export Plug-In . SVG Version: 6.00 Build 0)  -->
<!DOCTYPE svg PUBLIC "-//W3C//DTD SVG 1.1//EN" "http://www.w3.org/Graphics/SVG/1.1/DTD/svg11.dtd">
<svg version="1.1" xmlns="http://www.w3.org/2000/svg" xmlns:xlink="http://www.w3.org/1999/xlink" x="0px" y="0px" width="960px"
	 height="187px" viewBox="0 0 960 187" enable-background="new 0 0 960 187" xml:space="preserve">
<g id="Layer_2" display="none">
	<rect y="-26" display="inline" fill="#491447" width="960" height="240"/>
</g>
<g id="Layer_1">
	<g>
		<path fill="#FFFFFF" d="M225.365,141.83V55.472H192.81V43.555h78.893v11.917h-32.554v86.359H225.365z"/>
		<path fill="#FFFFFF" d="M275.077,141.83V68.859h8.945l3.959,13.535c2.541-4.414,5.987-7.967,10.338-10.666
			c4.349-2.697,9.555-4.046,15.618-4.046v12.799c-0.685,0-1.393,0-2.127,0c-0.733,0-1.443,0.051-2.126,0.147
			c-8.31,0.688-14.103,3.582-17.377,8.68c-3.277,5.102-4.913,12.163-4.913,21.186v31.336H275.077z"/>
		<path fill="#FFFFFF" d="M343.118,143.596c-4.596,0-8.798-0.834-12.611-2.501c-3.813-1.667-6.844-4.069-9.092-7.209
			c-2.25-3.138-3.373-6.914-3.373-11.327c0-5.786,2.027-10.347,6.086-13.683c4.055-3.333,9.774-5.907,17.156-7.724
			c7.38-1.814,16.007-3.26,25.882-4.34c0.195-6.179-1.026-10.935-3.666-14.27c-2.639-3.333-6.892-5.002-12.757-5.002
			c-4.399,0-7.992,1.007-10.778,3.016c-2.787,2.011-4.571,4.781-5.352,8.312l-11.878-3.531c1.955-5.591,5.449-9.93,10.485-13.02
			c5.034-3.089,10.826-4.634,17.377-4.634c10.068,0,17.425,2.379,22.07,7.135c4.642,4.758,6.965,12.236,6.965,22.435v17.066
			c0,6.083,0.243,11.328,0.733,15.743c0.488,4.413,1.075,8.337,1.76,11.769h-11.292l-2.933-10.004
			c-2.151,3.63-5.231,6.499-9.238,8.606C354.652,142.541,349.472,143.596,343.118,143.596z M345.758,133.739
			c3.813,0,7.428-0.686,10.851-2.06c3.421-1.372,6.207-3.701,8.359-6.988c2.149-3.285,3.226-7.772,3.226-13.461v-4.561
			c-7.43,0.787-13.882,1.743-19.356,2.869c-5.476,1.128-9.703,2.698-12.685,4.708c-2.983,2.011-4.472,4.685-4.472,8.018
			c0,3.435,1.247,6.204,3.739,8.312C337.912,132.686,341.359,133.739,345.758,133.739z"/>
		<path fill="#FFFFFF" d="M415.556,141.83l-25.955-72.971h13.345l19.063,56.788l18.917-56.788h13.345l-25.955,72.971H415.556z"/>
		<path fill="#FFFFFF" d="M495.475,143.596c-7.625,0-14.078-1.692-19.357-5.076c-5.279-3.384-9.311-7.945-12.097-13.683
			c-2.786-5.737-4.179-12.185-4.179-19.346c0-7.747,1.562-14.44,4.692-20.082c3.128-5.639,7.355-10.004,12.685-13.094
			c5.327-3.089,11.313-4.634,17.963-4.634c5.767,0,10.851,1.154,15.25,3.457c4.4,2.305,8.04,5.395,10.925,9.268
			c2.883,3.876,4.985,8.264,6.305,13.168c1.32,4.905,1.783,9.955,1.393,15.153h-56.017c0.195,6.083,1.54,10.887,4.032,14.417
			c2.493,3.532,5.448,6.009,8.872,7.43c3.421,1.423,6.599,2.134,9.531,2.134c4.106,0,7.552-0.663,10.338-1.987
			c2.786-1.324,5.008-3.064,6.672-5.223l11.878,3.531c-2.64,4.218-6.404,7.701-11.292,10.446
			C508.183,142.221,502.317,143.596,495.475,143.596z M473.185,98.871h42.82c0-3.432-0.858-6.716-2.567-9.856
			c-1.711-3.138-4.106-5.713-7.185-7.724c-3.08-2.009-6.771-3.016-11.071-3.016c-3.618,0-7.039,0.688-10.266,2.06
			c-3.225,1.375-5.891,3.582-7.992,6.621C474.822,89.996,473.575,93.968,473.185,98.871z"/>
		<path fill="#FFFFFF" d="M560.728,141.83c-4.597,0-8.139-0.465-10.632-1.398c-2.492-0.93-4.204-2.721-5.132-5.369
			c-0.93-2.648-1.393-6.474-1.393-11.475V43.702h12.319v77.826c0,3.729,0.389,6.23,1.172,7.503c0.782,1.276,2.883,1.913,6.306,1.913
			h2.786v10.887H560.728z"/>
		<path fill="#FFFFFF" d="M579.498,141.83V43.555h22.875l26.102,80.327l26.102-80.327h22.876v98.276h-13.785V57.972l-28.302,83.858
			H621.73l-28.448-83.858v83.858H579.498z"/>
		<path fill="#FFFFFF" d="M719.244,143.596c-4.596,0-8.798-0.834-12.61-2.501c-3.813-1.667-6.844-4.069-9.092-7.209
			c-2.25-3.138-3.373-6.914-3.373-11.327c0-5.786,2.028-10.347,6.086-13.683c4.055-3.333,9.774-5.907,17.156-7.724
			c7.38-1.814,16.007-3.26,25.882-4.34c0.195-6.179-1.026-10.935-3.666-14.27c-2.64-3.333-6.893-5.002-12.758-5.002
			c-4.4,0-7.993,1.007-10.779,3.016c-2.786,2.011-4.571,4.781-5.352,8.312l-11.878-3.531c1.954-5.591,5.448-9.93,10.485-13.02
			c5.034-3.089,10.826-4.634,17.378-4.634c10.067,0,17.424,2.379,22.069,7.135c4.642,4.758,6.966,12.236,6.966,22.435v17.066
			c0,6.083,0.243,11.328,0.733,15.743c0.488,4.413,1.075,8.337,1.759,11.769H746.96l-2.933-10.004
			c-2.152,3.63-5.23,6.499-9.238,8.606C730.779,142.541,725.598,143.596,719.244,143.596z M721.884,133.739
			c3.813,0,7.429-0.686,10.851-2.06c3.422-1.372,6.208-3.701,8.359-6.988c2.15-3.285,3.226-7.772,3.226-13.461v-4.561
			c-7.431,0.787-13.883,1.743-19.357,2.869c-5.477,1.128-9.704,2.698-12.684,4.708c-2.983,2.011-4.473,4.685-4.473,8.018
			c0,3.435,1.247,6.204,3.74,8.312C714.039,132.686,717.485,133.739,721.884,133.739z"/>
		<path fill="#FFFFFF" d="M775.993,141.83V68.859h9.092l3.226,11.034c2.053-3.432,4.935-6.326,8.651-8.68
			c3.714-2.354,8.652-3.531,14.811-3.531c8.798,0,15.006,2.574,18.624,7.724c3.616,5.149,5.426,11.894,5.426,20.229v46.195h-12.318
			V99.313c0-3.726-0.344-7.183-1.027-10.372c-0.685-3.186-2.177-5.761-4.472-7.724c-2.298-1.961-5.792-2.943-10.485-2.943
			c-5.965,0-10.657,2.037-14.078,6.105c-3.423,4.071-5.132,10.03-5.132,17.875v39.576H775.993z"/>
		<path fill="#FFFFFF" d="M880.988,143.596c-5.477,0-10.609-1.497-15.397-4.488c-4.791-2.99-8.629-7.305-11.512-12.946
			c-2.885-5.638-4.326-12.48-4.326-20.523c0-8.041,1.441-14.882,4.326-20.523c2.883-5.639,6.721-9.953,11.512-12.946
			c4.788-2.99,9.921-4.487,15.397-4.487c5.766,0,10.606,1.154,14.517,3.457c3.909,2.305,6.941,5.37,9.092,9.195v-36.78h12.318
			v70.764c0,2.453,0.097,6.058,0.293,10.814c0.195,4.758,0.928,10.323,2.2,16.698h-11.585l-3.225-11.034
			c-2.152,3.923-5.184,7.038-9.092,9.342C891.594,142.442,886.754,143.596,880.988,143.596z M884.213,133.003
			c6.255,0,11.267-2.402,15.031-7.209c3.762-4.804,5.646-11.523,5.646-20.156c0-8.728-1.884-15.47-5.646-20.228
			c-3.764-4.756-8.776-7.135-15.031-7.135c-6.257,0-11.268,2.379-15.03,7.135c-3.765,4.759-5.646,11.5-5.646,20.228
			c0,8.632,1.88,15.352,5.646,20.156C872.945,130.601,877.956,133.003,884.213,133.003z"/>
		<path fill="#FFFFFF" d="M943.603,141.83V78.716h-10.118v-9.857h22.436v72.971H943.603z M949.761,55.03
			c-2.444,0-4.571-0.905-6.379-2.722c-1.81-1.814-2.713-3.995-2.713-6.547c0-2.549,0.903-4.708,2.713-6.473
			c1.808-1.765,3.935-2.648,6.379-2.648c2.541,0,4.715,0.883,6.525,2.648c1.808,1.765,2.713,3.924,2.713,6.473
			c0,2.551-0.906,4.733-2.713,6.547C954.477,54.125,952.302,55.03,949.761,55.03z"/>
	</g>
	<g>
		<ellipse fill="#491447" cx="96.431" cy="93.642" rx="92.431" ry="92.517"/>
		<path fill="#FFFFFF" d="M126.19,96.196L95.827,62.759v-0.096L65.465,96.1l-44.899,49.445
			c13.835,20.228,35.585,34.564,60.766,38.503l14.495,0.015v0.096l14.495-0.015c25.181-3.938,46.932-18.275,60.766-38.503
			L126.19,96.196z"/>
		<path fill="#491549" d="M106.445,148.784c-0.614-0.145-1.25-0.229-1.907-0.229h-1.23c0.031-0.41,0.047-0.795,0.047-1.166v-14.511
			c0-4.723-1.885-8.15-4.481-8.15h-6.412c-2.596,0-4.481,3.427-4.481,8.15v14.511c0,0.376,0.017,0.76,0.047,1.166H86.8
			c-0.566,0-1.118,0.06-1.653,0.168c-3.893,0.791-6.83,4.316-6.83,8.549v18.887c0,1.361,0.312,2.644,0.853,3.792
			c0.764,1.62,2.001,2.961,3.525,3.832c1.216,0.695,2.614,1.093,4.105,1.093h17.738c1.469,0,2.846-0.389,4.049-1.065
			c1.737-0.975,3.109-2.553,3.841-4.465c0.378-0.988,0.593-2.061,0.593-3.187v-18.887
			C113.022,153.133,110.211,149.674,106.445,148.784z M90.811,132.879c0-3.384,1.241-5.244,1.653-5.244h6.412
			c0.411,0,1.653,1.86,1.653,5.244v14.223h-9.718V132.879z M98.876,154.087h-6.412c-1.267,0-2.351-1.683-2.817-4.079h12.046
			C101.226,152.403,100.143,154.087,98.876,154.087z"/>
		<g>
			<path fill="#FFFFFF" stroke="#491447" stroke-miterlimit="10" d="M96.431,185.895C45.464,185.895,4,144.452,4,93.51
				S45.464,1.125,96.431,1.125s92.431,41.444,92.431,92.385S147.397,185.895,96.431,185.895z M96.431,3.45
				C46.712,3.45,6.262,43.851,6.262,93.51s40.449,90.061,90.168,90.061c49.719,0,90.169-40.401,90.169-90.061
				S146.15,3.45,96.431,3.45z"/>
		</g>
		<path fill="#FFFFFF" d="M94.001,185.457c4.617,0,9.15-0.365,13.576-1.064l-27.331-0.03
			C84.729,185.08,89.322,185.457,94.001,185.457z"/>
		<path fill="#FDFDFE" d="M121.333,36.195l-4.503-3.617l-9.298-7.469c-1.244-0.999-2.954-1.739-4.878-2.202
			c-0.012-0.03-0.029-0.06-0.041-0.091c-0.564-0.121-1.144-0.229-1.73-0.33v-2.382v-1.186v-3.483c0,0-2.832-5.306-5.045-5.306
			c-0.012,0-0.023,0.002-0.035,0.003c-0.012,0-0.024-0.003-0.035-0.003c-2.213,0-5.045,5.306-5.045,5.306v3.483v1.186v2.382
			c-0.586,0.101-1.166,0.209-1.73,0.33c-0.013,0.03-0.029,0.06-0.041,0.091c-1.924,0.463-3.634,1.203-4.878,2.202l-9.298,7.469
			l-4.503,3.617c-0.994,0.799-1.573,1.675-1.791,2.563c1.683-0.135,3.337-0.46,4.833-1.001l1.693-0.612v0.343
			c0,0.628,0.495,1.137,1.107,1.137c0.611,0,1.107-0.509,1.107-1.137v-1.144l3.815-1.38v0.629c0,0.628,0.495,1.137,1.107,1.137
			c0.611,0,1.107-0.509,1.107-1.137v-1.429l2.845-1.029v0.701c0,0.628,0.495,1.137,1.107,1.137c0.611,0,1.107-0.509,1.107-1.137
			v-1.502l2.416-0.874v0.365l0.027-0.022l2.957,16.876l0.077,0.437l-0.639,0.002c-1.219,0.004-2.224,1.879-2.421,4.341l3.939-0.012
			c0.282,0.918,0.643,1.785,1.085,2.579c0.007-0.013,0.013-0.027,0.02-0.04c0.007,0.013,0.013,0.027,0.02,0.04
			c0.005-0.009,0.01-0.019,0.015-0.028c0.005,0.009,0.01,0.019,0.015,0.028c0.007-0.013,0.013-0.027,0.02-0.04
			c0.007,0.013,0.013,0.027,0.02,0.04c0.442-0.794,0.803-1.661,1.085-2.579l3.939,0.012c-0.197-2.462-1.202-4.337-2.421-4.341
			l-0.639-0.002l0.077-0.437l2.957-16.876l0.027,0.022v-0.365l2.416,0.874v1.502c0,0.628,0.495,1.137,1.107,1.137
			c0.611,0,1.107-0.509,1.107-1.137v-0.701l2.845,1.029v1.429c0,0.628,0.495,1.137,1.107,1.137c0.611,0,1.107-0.509,1.107-1.137
			v-0.629l3.815,1.38v1.144c0,0.628,0.495,1.137,1.107,1.137c0.611,0,1.107-0.509,1.107-1.137v-0.343l1.693,0.612
			c1.496,0.541,3.15,0.866,4.833,1.001C122.906,37.87,122.327,36.994,121.333,36.195z"/>
	</g>
	<line fill="none" x1="221.526" y1="109.914" x2="223.526" y2="109.783"/>
	<line fill="none" x1="0" y1="93.642" x2="2.333" y2="93.642"/>
</g>
</svg>
