<?xml version="1.0" encoding="utf-8"?>
<!-- Generator: Adobe Illustrator 17.0.0, SVG Export Plug-In . SVG Version: 6.00 Build 0)  -->
<!DOCTYPE svg PUBLIC "-//W3C//DTD SVG 1.1//EN" "http://www.w3.org/Graphics/SVG/1.1/DTD/svg11.dtd">
<svg version="1.1" id="Layer_1" xmlns="http://www.w3.org/2000/svg" xmlns:xlink="http://www.w3.org/1999/xlink" x="0px" y="0px"
	 width="1000px" height="1000px" viewBox="0 0 1000 1000" enable-background="new 0 0 1000 1000" xml:space="preserve">
<g>
	<ellipse fill="#491447" cx="501.151" cy="501.636" rx="494.56" ry="495.021"/>
	<path fill="#FFFFFF" d="M660.381,515.301L497.923,336.394v-0.515L335.465,514.785L95.23,779.345
		c74.024,108.231,190.402,184.941,325.136,206.012l77.557,0.083v0.515l77.557-0.083c134.734-21.071,251.112-97.781,325.136-206.012
		L660.381,515.301z"/>
	<path fill="#491549" d="M554.736,796.681c-3.284-0.776-6.689-1.226-10.203-1.226h-6.579c0.163-2.195,0.253-4.255,0.253-6.238
		v-77.64c0-25.268-10.083-43.607-23.974-43.607h-34.309c-13.891,0-23.974,18.339-23.974,43.607v77.64
		c0,2.01,0.089,4.068,0.251,6.238h-6.579c-3.029,0-5.984,0.319-8.847,0.9c-20.832,4.231-36.545,23.094-36.545,45.74V943.15
		c0,7.282,1.67,14.146,4.567,20.287c4.089,8.669,10.704,15.841,18.861,20.506c6.504,3.719,13.987,5.848,21.964,5.848h94.911
		c7.858,0,15.227-2.082,21.666-5.696c9.296-5.219,16.634-13.662,20.552-23.891c2.025-5.287,3.175-11.027,3.175-17.053V842.095
		C589.926,819.946,574.885,801.443,554.736,796.681z M471.081,711.576c0-18.108,6.642-28.06,8.844-28.06h34.309
		c2.202,0,8.844,9.952,8.844,28.06v76.104h-51.996V711.576z M514.233,825.051h-34.309c-6.781,0-12.577-9.007-15.073-21.824h64.455
		C526.809,816.044,521.014,825.051,514.233,825.051z"/>
	<g>
		<path fill="#FFFFFF" stroke="#491447" stroke-miterlimit="10" d="M501.151,995.247c-272.7,0-494.559-221.748-494.559-494.316
			S228.45,6.615,501.151,6.615s494.56,221.748,494.56,494.316S773.851,995.247,501.151,995.247z M501.151,19.053
			c-266.026,0-482.454,216.17-482.454,481.878s216.428,481.878,482.454,481.878c266.027,0,482.456-216.17,482.456-481.878
			S767.178,19.053,501.151,19.053z"/>
	</g>
	<path fill="#FFFFFF" d="M488.149,992.9c24.702,0,48.958-1.954,72.642-5.693l-146.235-0.16
		C438.542,990.885,463.116,992.9,488.149,992.9z"/>
	<path fill="#FDFDFE" d="M634.391,194.262l-24.096-19.355l-49.752-39.963c-6.657-5.347-15.807-9.304-26.101-11.782
		c-0.065-0.163-0.154-0.322-0.222-0.485c-3.019-0.647-6.119-1.224-9.255-1.766v-12.746v-6.347V83.182
		c0,0-15.151-28.389-26.992-28.389c-0.062,0-0.126,0.012-0.188,0.014c-0.062-0.002-0.126-0.014-0.188-0.014
		c-11.841,0-26.992,28.389-26.992,28.389v18.635v6.347v12.746c-3.136,0.542-6.237,1.119-9.255,1.766
		c-0.068,0.163-0.157,0.322-0.222,0.485c-10.294,2.478-19.444,6.435-26.101,11.782l-49.752,39.963l-24.096,19.355
		c-5.321,4.274-8.419,8.964-9.581,13.712c9.007-0.722,17.856-2.459,25.862-5.355l9.057-3.276v1.836c0,3.36,2.651,6.083,5.921,6.083
		c3.27,0,5.921-2.724,5.921-6.083v-6.119l20.413-7.383v3.363c0,3.36,2.651,6.083,5.921,6.083c3.27,0,5.921-2.724,5.921-6.083v-7.646
		l15.224-5.506v3.752c0,3.36,2.651,6.083,5.921,6.083c3.27,0,5.921-2.724,5.921-6.083v-8.034l12.928-4.676v1.953l0.146-0.117
		l15.82,90.298l0.41,2.339l-3.421,0.01c-6.522,0.02-11.901,10.053-12.954,23.227l21.076-0.064c1.511,4.913,3.44,9.55,5.807,13.799
		c0.038-0.07,0.071-0.144,0.109-0.214c0.038,0.07,0.071,0.144,0.109,0.214c0.027-0.049,0.051-0.102,0.078-0.151
		c0.027,0.049,0.051,0.102,0.078,0.151c0.038-0.07,0.071-0.144,0.109-0.214c0.038,0.07,0.071,0.144,0.109,0.214
		c2.366-4.25,4.296-8.886,5.807-13.799l21.076,0.064c-1.054-13.174-6.432-23.207-12.954-23.227l-3.421-0.01l0.41-2.339l15.82-90.298
		l0.146,0.117v-1.953l12.928,4.676v8.034c0,3.36,2.651,6.083,5.921,6.083c3.27,0,5.921-2.724,5.921-6.083v-3.752l15.224,5.506v7.646
		c0,3.36,2.651,6.083,5.921,6.083c3.27,0,5.921-2.724,5.921-6.083v-3.363l20.413,7.383v6.119c0,3.36,2.651,6.083,5.92,6.083
		s5.921-2.724,5.921-6.083v-1.836l9.057,3.276c8.006,2.896,16.855,4.634,25.862,5.355
		C642.81,203.225,639.712,198.536,634.391,194.262z"/>
</g>
</svg>
